<svg height="512pt" viewBox="-75 0 512 512" width="512pt" xmlns="http://www.w3.org/2000/svg"><path d="m274.589844 2.738281c-9.3125-9.3125-39.515625 5.789063-67.457032 33.730469-27.941406 27.945312-43.042968 58.144531-33.730468 67.460938 9.3125 9.3125 39.515625-5.789063 67.460937-33.730469 27.941407-27.941407 43.042969-58.144531 33.726563-67.460938zm0 0" fill="#4caf50"/><path d="m307.5625 245.761719c-12.820312-16-24.917969-31.128907-30.933594-46.890625-4.011718-10.519532-6.847656-21.78125-9.597656-32.683594-9.539062-37.910156-20.355469-80.855469-85.699219-80.855469s-76.160156 42.945313-85.714843 80.855469c-2.730469 10.902344-5.589844 22.164062-9.601563 32.683594-6.015625 15.742187-18.113281 30.867187-30.933594 46.890625-25.515625 31.914062-54.464843 68.074219-55.082031 127.570312 0 76.460938 62.207031 138.667969 138.667969 138.667969 14.355469 0 28.691406-2.304688 42.664062-6.847656 13.976563 4.542968 28.3125 6.847656 42.667969 6.847656 76.457031 0 138.667969-62.207031 138.667969-138.667969 0-.042969 0-.0625 0-.105469-.621094-59.390624-29.570313-95.550781-55.105469-127.464843zm0 0" fill="#8bc34a"/><path d="m224 512c-14.378906 0-28.714844-2.28125-42.667969-6.828125-13.949219 4.546875-28.285156 6.828125-42.664062 6.828125-76.460938 0-138.667969-62.207031-138.667969-138.667969.617188-59.496093 29.566406-95.65625 55.105469-127.570312 12.820312-16.023438 24.914062-31.128907 30.933593-46.890625 4.007813-10.519532 6.824219-21.78125 9.578126-32.683594 9.554687-37.890625 20.371093-80.855469 85.714843-80.855469s76.160157 42.964844 85.71875 80.855469c2.75 10.902344 5.589844 22.164062 9.578125 32.683594 6.015625 15.742187 18.132813 30.867187 30.933594 46.890625 25.535156 31.914062 54.484375 68.074219 55.105469 127.484375v.109375c0 76.4375-62.210938 138.644531-138.667969 138.644531zm-42.667969-28.777344c1.21875 0 2.410157.210938 3.5625.597656 12.800781 4.5625 25.941407 6.847657 39.105469 6.847657 64.683594 0 117.3125-52.609375 117.332031-117.292969-.554687-51.988281-25.917969-83.667969-50.429687-114.304688-13.867188-17.34375-27.007813-33.746093-34.199219-52.605468-4.457031-11.671875-7.464844-23.574219-10.347656-35.074219-9.46875-37.589844-16.316407-64.722656-65.023438-64.722656-48.703125 0-55.550781 27.132812-65.023437 64.722656-2.902344 11.5-5.886719 23.402344-10.347656 35.074219-7.1875 18.859375-20.308594 35.242187-34.195313 52.605468-24.535156 30.65625-49.898437 62.335938-50.433594 114.371094 0 64.574219 52.652344 117.226563 117.335938 117.226563 13.160156 0 26.300781-2.285157 39.101562-6.828125 1.152344-.40625 2.347657-.617188 3.5625-.617188zm0 0"/><path d="m138.667969 469.332031c-52.929688 0-96-43.070312-96-96 0-5.886719 4.777343-10.664062 10.664062-10.664062 5.890625 0 10.667969 4.777343 10.667969 10.664062 0 41.175781 33.492188 74.667969 74.667969 74.667969 5.886719 0 10.664062 4.777344 10.664062 10.667969 0 5.886719-4.777343 10.664062-10.664062 10.664062zm0 0"/><path d="m181.332031 106.667969c-.085937 0-.167969 0-.234375 0-5.886718-.128907-10.558594-5.015625-10.429687-10.902344.875-39.148437-19.628907-65.367187-37.441407-75.925781-5.054687-2.988282-6.742187-9.535156-3.734374-14.613282 2.988281-5.078124 9.558593-6.71875 14.613281-3.734374 23.851562 14.144531 48.984375 46.445312 47.894531 94.742187-.128906 5.804687-4.886719 10.433594-10.667969 10.433594zm0 0"/><path d="m181.332031 106.667969c-5.886719 0-10.664062-4.78125-10.664062-10.667969 0-63.019531 48.296875-96 96-96 5.886719 0 10.664062 4.777344 10.664062 10.667969 0 63.015625-48.296875 96-96 96zm73.984375-84.566407c-29.503906 4.054688-57.917968 24.019532-62.632812 62.464844 29.503906-4.054687 57.917968-24.042968 62.632812-62.464844zm0 0"/></svg>